{"title":"Geordie Shore S12E08 1080P WEB-DL AAC2 0 H 264 ( FINAL )","uid":14519399,"size":1637210105,"categoryP":"video","categoryS":"hd___tv_shows","magnet":"?xt=urn:btih:fb39d1f70df17419d5609b1c26f6e8a0b8322bb9&amp;dn=Geordie+Shore+S12E08+1080P+WEB-DL+AAC2+0+H+264+%28+FINAL+%29&amp;tr=udp%3A%2F%2Ftracker.leechers-paradise.org%3A6969&amp;tr=udp%3A%2F%2Fzer0day.ch%3A1337&amp;tr=udp%3A%2F%2Fopen.demonii.com%3A1337&amp;tr=udp%3A%2F%2Ftracker.coppersurfer.tk%3A6969&amp;tr=udp%3A%2F%2Fexodus.desync.com%3A6969","seeders":5,"leechers":1,"uploader":"jmanwf","files":1,"time":1462367496,"description":"Description\r\nIt's the final episode. Gary returns and drops a bombshell. New boy Marty cant' get a stiffy with Chloe. Holly needs to make an all important decision and there's a shock exit!\r\n\r\n\r\n\r\nVideo\r\nID : 2\r\nFormat : AVC\r\nFormat/Info : Advanced Video Codec\r\nFormat profile :   \r\nFormat settings, CABAC : Yes\r\nFormat settings, ReFrames : 4 frames\r\nCodec ID : avc1\r\nCodec ID/Info : Advanced Video Coding\r\nDuration : 42mn 51s\r\nBit rate : 4 964 Kbps\r\nWidth : 1 920 pixels\r\nHeight : 1 080 pixels\r\nDisplay aspect ratio : 16:9\r\nFrame rate mode : Constant\r\nFrame rate : 25.000 fps\r\nColor space : YUV\r\nChroma subsampling : 4:2:0\r\nBit depth : 8 bits\r\nScan type : Progressive\r\nBits/(Pixel*Frame) : 0.096\r\nStream size : 1.49 GiB (97%)\r\nLanguage : English\r\nEncoded date : UTC 2016-05-04 05:09:38\r\nTagged date : UTC 2016-05-04 05:12:07\r\nColor range : Limited\r\nColor primaries : BT.709\r\nTransfer characteristics : BT.709\r\nMatrix coefficients : BT.709\r\n\r\nAudio\r\nID : 1\r\nFormat : AAC\r\nFormat/Info : Advanced Audio Codec\r\nFormat profile : LC\r\nCodec ID : 40\r\nDuration : 42mn 51s\r\nBit rate mode : Variable\r\nBit rate : 125 Kbps\r\nMaximum bit rate : 199 Kbps\r\nChannel(s) : 2 channels\r\nChannel positions : Front: L R\r\nSampling rate : 48.0 KHz\r\nFrame rate : 46.875 fps (1024 spf)\r\nCompression mode : Lossy\r\nStream size : 38.4 MiB (2%)\r\nLanguage : English\r\nDefault : Yes\r\nAlternate group : 1\r\nEncoded date : UTC 2016-05-04 05:09:38\r\nTagged date : UTC 2016-05-04 05:12:07","torrent":{"xt":"urn:btih:fb39d1f70df17419d5609b1c26f6e8a0b8322bb9","amp;dn":"Geordie+Shore+S12E08+1080P+WEB-DL+AAC2+0+H+264+%28+FINAL+%29","amp;tr":["udp%3A%2F%2Ftracker.leechers-paradise.org%3A6969","udp%3A%2F%2Fzer0day.ch%3A1337","udp%3A%2F%2Fopen.demonii.com%3A1337","udp%3A%2F%2Ftracker.coppersurfer.tk%3A6969","udp%3A%2F%2Fexodus.desync.com%3A6969"],"infoHash":"fb39d1f70df17419d5609b1c26f6e8a0b8322bb9","infoHashBuffer":{"type":"Buffer","data":[251,57,209,247,13,241,116,25,213,96,155,28,38,246,232,160,184,50,43,185]},"announce":[],"urlList":[]}}